:SAMPLES-PER-SECOND 30
:FULLY-SPECIFIED
:DEGREES
514
root  38.6668 40.1896 0.739188 -100.163 -88.1051 98.7585
RightUpLeg  1.39333 -10.5609 -8.24016
RightLeg  11.19 -1.43595 1.41119
RightFoot  -12.8901 -0.0100558 5.74613
RightToes  0.000482159 0.542163 -0.142577
Spine  5.05986 1.33046 2.18527
Spine1  6.09474 2.19669 -2.8859
HEad  -3.15975 -1.92437 -0.0733884
LeftShoulder1  7.33864 -11.2594 -43.2265
LeftArm  -11.9335 22.9514 -29.8906
LeftForeArm  32.6932 -19.9682 -3.1959
LeftHand  -0.25398 0.0180481 5.50724
RightShoulder  4.92061 8.42529 35.2825
RightArm  3.39353 -14.0579 39.245
RightForeArm  6.72288 22.127 4.62062
RightHand  -0.747785 1.28642 -13.1323
LeftUpLeg  -0.900496 3.88147 -3.71953
LeftLeg  9.01651 13.701 -1.32446
LeftFoot  -12.8738 0.0637204 -1.02033
LeftToes  1.06246e-005 4.65854e-005 -8.18502e-006
515
root  38.5351 40.1121 0.768301 -88.2978 -88.056 86.4735
RightUpLeg  1.38584 -11.25 -8.31814
RightLeg  12.6757 -0.929047 0.918803
RightFoot  -13.4993 0.0141578 5.61902
RightToes  0.000482159 0.542163 -0.142577
Spine  5.11564 1.46236 1.34229
Spine1  6.37288 2.19473 -2.45635
HEad  -2.09117 -2.48653 0.493465
LeftShoulder1  7.30275 -11.2669 -42.9789
LeftArm  -11.8248 22.7879 -28.8554
LeftForeArm  32.2063 -20.5296 -3.19378
LeftHand  -0.25398 0.0180481 5.50724
RightShoulder  4.80837 8.23184 35.0102
RightArm  2.04477 -14.1525 39.0952
RightForeArm  5.89395 21.4199 4.719
RightHand  -0.76739 1.2972 -13.4496
LeftUpLeg  -0.599547 4.44332 -3.72762
LeftLeg  9.95437 12.6432 -1.21752
LeftFoot  -13.7953 0.0497934 -1.51547
LeftToes  1.06246e-005 4.65854e-005 -8.18502e-006
516
root  38.4127 39.983 0.777243 -92.7748 -87.7826 90.4385
RightUpLeg  0.40778 -10.8387 -8.16515
RightLeg  15.7356 -0.957933 -0.156609
RightFoot  -13.9542 0.0310299 5.49717
RightToes  0.000482159 0.542163 -0.142577
Spine  5.68281 1.72947 0.144515
Spine1  6.39943 2.29635 -2.03038
HEad  -1.56922 -2.89768 0.767733
LeftShoulder1  7.26794 -11.2619 -42.7779
LeftArm  -11.7332 22.5992 -27.8221
LeftForeArm  31.4403 -21.0272 -3.22016
LeftHand  -0.25398 0.0180481 5.50724
RightShoulder  4.69339 8.03879 34.7049
RightArm  0.994263 -14.1701 39.0044
RightForeArm  4.98448 20.9953 4.81501
RightHand  -0.779213 1.30125 -13.6446
LeftUpLeg  -0.323953 5.28867 -3.77571
LeftLeg  11.1445 11.7788 -1.18837
LeftFoot  -14.8613 0.0162033 -2.3661
LeftToes  1.06246e-005 4.65854e-005 -8.18502e-006
517
root  38.2997 39.8237 0.77711 -111.588 -87.1137 108.732
RightUpLeg  -1.94035 -7.45252 -7.90211
RightLeg  20.9252 -3.74444 -1.86408
RightFoot  -13.4985 0.0174909 5.8307
RightToes  0.000482159 0.542163 -0.142577
Spine  6.59008 2.09501 -1.1191
Spine1  6.2755 2.55399 -1.95568
HEad  -1.52537 -2.89449 0.897435
LeftShoulder1  7.26372 -11.2622 -42.7438
LeftArm  -11.501 22.3895 -26.571
LeftForeArm  30.5525 -21.3633 -3.26369
LeftHand  -0.25398 0.0180481 5.50724
RightShoulder  4.69211 8.05488 34.6375
RightArm  0.400618 -14.026 38.8261
RightForeArm  4.19539 20.8698 4.8669
RightHand  -0.806077 1.3619 -13.9854
LeftUpLeg  -0.135751 6.2406 -4.08856
LeftLeg  12.4665 11.6538 -1.02457
LeftFoot  -15.8381 -0.0171823 -2.86822
LeftToes  1.06246e-005 4.65854e-005 -8.18502e-006
518
root  38.1751 39.677 0.790409 -130.124 -85.942 126.637
RightUpLeg  -5.1267 -3.66109 -7.7829
RightLeg  27.6173 -6.45984 -3.86847
RightFoot  -11.9033 -0.0494195 6.497
RightToes  0.000482159 0.542163 -0.142577
Spine  7.76598 2.39631 -1.89424
Spine1  6.17087 2.8991 -2.49899
HEad  -1.66482 -2.30481 1.0171
LeftShoulder1  7.28434 -11.2642 -42.8391
LeftArm  -11.1798 21.9557 -25.1883
LeftForeArm  29.7759 -21.0689 -3.29903
LeftHand  -0.25398 0.0180481 5.50724
RightShoulder  4.8254 8.31085 34.8824
RightArm  -0.0603691 -13.7619 38.6177
RightForeArm  3.99136 21.0321 4.84255
RightHand  -0.845055 1.50921 -14.3527
LeftUpLeg  0.21472 7.10831 -4.56791
LeftLeg  13.6851 12.3184 -0.620088
LeftFoot  -16.538 -0.016306 -2.54837
LeftToes  1.06246e-005 4.65854e-005 -8.18502e-006
519
root  37.9997 39.578 0.821816 -142.561 -84.6635 138.351
RightUpLeg  -8.38598 -1.50674 -7.577
RightLeg  33.8934 -6.61137 -4.97549
RightFoot  -10.1657 -0.138387 6.82575
RightToes  0.000482159 0.542163 -0.142577
Spine  8.99751 2.49868 -1.9541
Spine1  6.18478 3.17915 -3.44565
HEad  -1.68603 -1.29904 0.946221
LeftShoulder1  7.2951 -11.2669 -42.9038
LeftArm  -10.9485 21.1406 -24.0689
LeftForeArm  29.2468 -19.7125 -3.36416
LeftHand  -0.25398 0.0180481 5.50724
RightShoulder  4.96484 8.56146 35.1861
RightArm  -0.535133 -13.4838 38.6148
RightForeArm  4.5353 21.3357 4.76588
RightHand  -0.88301 1.77518 -14.4574
LeftUpLeg  0.946598 7.72608 -4.85774
LeftLeg  14.4744 13.3051 -0.185503
LeftFoot  -17.0344 0.00526133 -1.94632
LeftToes  1.06246e-005 4.65854e-005 -8.18502e-006
520
root  37.7476 39.5319 0.861541 -150.856 -83.6535 146.157
RightUpLeg  -11.4856 -0.854129 -7.03146
RightLeg  38.045 -5.12165 -4.55056
RightFoot  -9.23249 -0.183376 6.54297
RightToes  0.000482159 0.542163 -0.142577
Spine  9.92218 2.38582 -1.59058
Spine1  6.15906 3.26208 -4.301
HEad  -1.36538 -0.21222 0.501673
LeftShoulder1  7.29352 -11.2693 -42.9127
LeftArm  -11.1157 20.081 -23.4587
LeftForeArm  29.1932 -17.3454 -3.562
LeftHand  -0.25398 0.0180481 5.50724
RightShoulder  4.99529 8.61238 35.2627
RightArm  -0.618597 -13.4027 38.8753
RightForeArm  4.91485 21.6736 4.71341
RightHand  -0.913579 2.05976 -14.4044
LeftUpLeg  1.82394 7.92937 -4.83142
LeftLeg  14.7069 14.3271 0.0500316
LeftFoot  -17.4562 0.0134241 -1.70608
LeftToes  1.06246e-005 4.65854e-005 -8.18502e-006
521
root  37.4251 39.519 0.906126 -156.608 -83.0113 151.842
RightUpLeg  -14.3406 -1.34377 -6.15621
RightLeg  39.3027 -4.00115 -3.78536
RightFoot  -8.88923 -0.197884 6.40676
RightToes  0.000482159 0.542163 -0.142577
Spine  10.4989 2.09742 -1.18631
Spine1  5.858 3.06885 -4.72052
HEad  -0.666087 0.762788 -0.156718
LeftShoulder1  7.30913 -11.2711 -43.0064
LeftArm  -11.7574 19.0572 -23.3274
LeftForeArm  29.6143 -14.5605 -3.84468
LeftHand  -0.25398 0.0180481 5.50724
RightShoulder  4.94104 8.54166 35.0578
RightArm  0.0378646 -13.6735 39.1922
RightForeArm  4.416 22.0512 4.72427
RightHand  -0.935302 2.20822 -14.4663
LeftUpLeg  2.52261 7.73795 -4.62479
LeftLeg  14.5802 15.3558 0.106673
LeftFoot  -17.79 0.0109356 -1.69952
LeftToes  1.06246e-005 4.65854e-005 -8.18502e-006
522
root  37.0461 39.5196 0.954464 -161.178 -82.7307 156.522
RightUpLeg  -16.5676 -2.70924 -5.03182
RightLeg  37.6819 -4.41121 -3.89955
RightFoot  -8.68441 -0.216469 6.77898
RightToes  0.000482159 0.542163 -0.142577
Spine  11.0374 1.6759 -0.913479
Spine1  5.3811 2.59711 -4.5921
HEad  0.0715769 1.67818 -0.710572
LeftShoulder1  7.33964 -11.2653 -43.2146
LeftArm  -12.403 18.1739 -23.6634
LeftForeArm  30.0567 -12.1474 -4.04481
LeftHand  -0.25398 0.0180481 5.50724
RightShoulder  4.88283 8.50143 34.716
RightArm  1.07251 -14.1697 39.3622
RightForeArm  3.87019 22.4196 4.75109
RightHand  -0.950875 2.28894 -14.5553
LeftUpLeg  3.18046 7.4589 -4.27289
LeftLeg  14.3014 16.1155 0.0260531
LeftFoot  -18.0028 0.015533 -1.58795
LeftToes  1.06246e-005 4.65854e-005 -8.18502e-006
523
root  36.6095 39.5288 0.993855 -165.49 -82.7058 160.855
RightUpLeg  -17.9792 -4.70299 -3.6888
RightLeg  33.739 -5.69222 -4.31827
RightFoot  -8.57374 -0.225497 6.91276
RightToes  0.000482159 0.542163 -0.142577
Spine  11.6648 1.22292 -0.805531
Spine1  5.08335 1.98235 -3.9704
HEad  0.419209 2.57681 -1.03498
LeftShoulder1  7.3474 -11.2296 -43.3736
LeftArm  -12.6064 17.3271 -24.5085
LeftForeArm  30.399 -10.6233 -4.17947
LeftHand  -0.25398 0.0180481 5.50724
RightShoulder  4.84895 8.49507 34.4586
RightArm  1.81663 -14.6476 39.3192
RightForeArm  4.20237 22.6229 4.73837
RightHand  -0.968353 2.47207 -14.49
LeftUpLeg  4.12008 7.36849 -3.714
LeftLeg  13.8452 16.3245 -0.278739
LeftFoot  -18.1326 0.0236142 -1.43417
LeftToes  1.06246e-005 4.65854e-005 -8.18502e-006
524
root  36.105 39.5201 1.00852 -168.704 -82.6537 164.065
RightUpLeg  -18.9822 -7.0255 -2.31426
RightLeg  28.3354 -6.06311 -3.77541
RightFoot  -8.47825 -0.22586 6.72169
RightToes  0.000482159 0.542163 -0.142577
Spine  12.2086 0.901384 -0.943911
Spine1  5.05368 1.45755 -3.18202
HEad  0.372793 3.31548 -1.19967
LeftShoulder1  7.33024 -11.1862 -43.4013
LeftArm  -12.3476 16.4251 -25.6887
LeftForeArm  31.0867 -10.0569 -4.35986
LeftHand  -0.25398 0.0180481 5.50724
RightShoulder  4.83772 8.47049 34.448
RightArm  2.01632 -15.0873 39.0742
RightForeArm  4.70172 22.5203 4.71208
RightHand  -0.99887 2.72154 -14.4985
LeftUpLeg  5.2048 7.36383 -3.19679
LeftLeg  13.4073 16.4093 -0.682087
LeftFoot  -18.3249 0.0311127 -1.29181
LeftToes  1.06246e-005 4.65854e-005 -8.18502e-006
525
root  35.5237 39.4538 1.00109 -169.303 -82.3785 164.736
RightUpLeg  -19.9698 -9.6693 -1.09307
RightLeg  22.4264 -4.54642 -2.33217
RightFoot  -8.22526 -0.246522 6.98953
RightToes  0.000482159 0.542163 -0.142577
Spine  12.629 0.757849 -1.32548
Spine1  5.04688 1.14779 -2.62908
HEad  0.265283 3.7205 -1.27285
LeftShoulder1  7.33407 -11.1823 -43.4375
LeftArm  -11.763 15.4851 -26.8416
LeftForeArm  32.2676 -10.283 -4.58141
LeftHand  -0.25398 0.0180481 5.50724
RightShoulder  4.86081 8.47209 34.6328
RightArm  1.73697 -15.6173 38.7524
RightForeArm  4.35303 21.9885 4.74646
RightHand  -1.0378 2.8353 -14.8521
LeftUpLeg  6.15804 7.14451 -3.1549
LeftLeg  13.3142 17.0198 -0.865606
LeftFoot  -18.7574 0.0438613 -1.06116
LeftToes  1.06246e-005 4.65854e-005 -8.18502e-006
526
root  34.8709 39.3377 0.98534 -167.653 -82.0334 163.128
RightUpLeg  -20.7828 -12.2428 -0.223541
RightLeg  16.6974 -2.57945 -0.83411
RightFoot  -7.94308 -0.277014 7.50689
RightToes  0.000482159 0.542163 -0.142577
Spine  13.1236 0.662042 -1.73095
Spine1  4.95528 0.944132 -2.33734
HEad  0.165492 3.98141 -1.28174
LeftShoulder1  7.38376 -11.2233 -43.6199
LeftArm  -10.8859 14.5233 -27.7619
LeftForeArm  33.3918 -11.131 -4.77816
LeftHand  -0.25398 0.0180481 5.50724
RightShoulder  4.90705 8.54074 34.7834
RightArm  0.878702 -16.2134 38.5964
RightForeArm  3.9052 20.9045 4.88933
RightHand  -1.05589 2.75168 -15.2512
LeftUpLeg  7.16842 6.70634 -3.58749
LeftLeg  13.3346 17.8652 -0.851843
LeftFoot  -19.433 0.0439735 -1.02285
LeftToes  1.06246e-005 4.65854e-005 -8.18502e-006
527
root  34.1565 39.2053 0.96048 -164.92 -81.8762 160.35
RightUpLeg  -21.0165 -11.9278 -0.833239
RightLeg  11.3871 -4.19208 0.830286
RightFoot  -7.71206 -0.288526 7.44704
RightToes  0.000482159 0.542163 -0.142577
Spine  13.7339 0.512731 -1.98419
Spine1  4.92113 0.700253 -2.08349
HEad  -0.0631673 4.2428 -1.30186
LeftShoulder1  7.45852 -11.2797 -43.9085
LeftArm  -9.59953 13.4884 -28.5225
LeftForeArm  33.8501 -12.4181 -4.9078
LeftHand  -0.25398 0.0180481 5.50724
RightShoulder  4.92991 8.59989 34.7733
RightArm  -0.675036 -16.768 38.6998
RightForeArm  4.78956 19.351 5.14097
RightHand  -1.02344 2.53871 -15.1684
LeftUpLeg  8.48184 6.36619 -4.08889
LeftLeg  13.0722 18.1538 -0.982843
LeftFoot  -20.1897 0.00408673 -1.50892
LeftToes  1.06246e-005 4.65854e-005 -8.18502e-006
528
root  33.3611 39.0474 0.913829 -161.468 -81.8616 156.875
RightUpLeg  -20.9429 -8.81566 -2.78603
RightLeg  6.84866 -8.9397 2.62338
RightFoot  -7.10089 -0.316917 7.23394
RightToes  0.000482159 0.542163 -0.142577
Spine  14.248 0.35833 -2.07422
Spine1  4.99091 0.480782 -1.91718
HEad  -0.441083 4.42729 -1.45437
LeftShoulder1  7.53715 -11.3454 -44.1892
LeftArm  -7.89971 12.3684 -29.2767
LeftForeArm  33.6855 -13.9142 -4.92497
LeftHand  -0.25398 0.0180481 5.50724
RightShoulder  4.92218 8.59198 34.7366
RightArm  -2.47502 -17.3236 38.8282
RightForeArm  6.80019 17.699 5.4286
RightHand  -0.944137 2.22104 -14.5749
LeftUpLeg  9.94287 6.30332 -4.45739
LeftLeg  12.7611 17.9694 -1.29866
LeftFoot  -20.9282 -0.0470566 -2.06081
LeftToes  1.06246e-005 4.65854e-005 -8.18502e-006
